<?xml version="1.0" standalone="no"?>
<!DOCTYPE svg PUBLIC "-//W3C//DTD SVG 20010904//EN"
 "http://www.w3.org/TR/2001/REC-SVG-20010904/DTD/svg10.dtd">
<svg version="1.0" xmlns="http://www.w3.org/2000/svg"
 width="346.000000pt" height="343.000000pt" viewBox="0 0 346.000000 343.000000"
 preserveAspectRatio="xMidYMid meet">
<metadata>
Created by potrace 1.16, written by Peter Selinger 2001-2019
</metadata>
<g transform="translate(0.000000,343.000000) scale(0.100000,-0.100000)"
fill="#000000" stroke="none">
<path d="M1562 3419 c-832 -72 -1498 -752 -1551 -1584 -48 -745 371 -1418
1059 -1700 226 -93 371 -120 645 -120 183 0 225 3 325 24 528 109 957 434
1195 906 137 270 194 535 182 845 -10 249 -57 439 -167 667 -96 201 -202 346
-364 500 -352 336 -836 505 -1324 462z m-631 -1415 c66 -31 114 -78 146 -142
24 -50 28 -69 28 -147 0 -103 -22 -162 -83 -223 -62 -61 -131 -85 -260 -90
-164 -7 -152 -32 -152 310 0 182 4 286 11 300 10 19 18 20 137 16 102 -3 136
-8 173 -24z m523 4 c16 -26 214 -497 227 -541 6 -22 4 -32 -12 -48 -18 -18
-23 -19 -42 -6 -12 8 -31 38 -43 68 l-22 54 -143 3 -144 2 -23 -60 c-13 -33
-32 -65 -43 -70 -24 -14 -59 4 -59 29 0 20 213 533 236 569 8 12 23 22 34 22
11 0 26 -10 34 -22z m600 -5 c34 -67 226 -544 226 -562 0 -26 -34 -45 -57 -32
-10 5 -28 37 -41 70 l-24 61 -142 0 -143 0 -24 -61 c-13 -33 -32 -65 -41 -70
-25 -14 -58 6 -58 35 0 20 197 504 230 565 16 31 56 27 74 -6z m637 1 c66 -31
114 -78 146 -142 24 -49 28 -69 27 -142 0 -103 -25 -167 -87 -228 -66 -65
-122 -84 -257 -90 -100 -4 -118 -2 -133 12 -15 16 -17 48 -17 305 0 216 3 290
13 300 9 9 45 12 137 9 100 -3 134 -8 171 -24z"/>
<path d="M700 1714 l0 -237 83 5 c122 7 191 50 227 143 20 50 16 154 -8 200
-45 88 -112 125 -227 125 l-75 0 0 -236z"/>
<path d="M1412 1863 c-9 -15 -39 -89 -99 -240 -4 -10 21 -13 106 -13 61 0 111
2 111 4 0 3 -24 64 -54 137 -46 112 -55 129 -64 112z"/>
<path d="M1958 1750 l-56 -140 109 0 c60 0 109 4 109 8 0 4 -24 67 -53 140
l-53 132 -56 -140z"/>
<path d="M2460 1714 l0 -237 83 5 c159 9 238 86 239 233 1 149 -88 234 -244
235 l-78 0 0 -236z"/>
</g>
</svg>
