<?xml version="1.0" standalone="no"?>
<!DOCTYPE svg PUBLIC "-//W3C//DTD SVG 20010904//EN"
 "http://www.w3.org/TR/2001/REC-SVG-20010904/DTD/svg10.dtd">
<svg version="1.0" xmlns="http://www.w3.org/2000/svg"
 width="900.000000pt" height="600.000000pt" viewBox="0 0 900.000000 600.000000"
 preserveAspectRatio="xMidYMid meet">

<g transform="translate(0.000000,600.000000) scale(0.100000,-0.100000)"
fill="#000000" stroke="none">
<path d="M1823 3665 c-119 -32 -212 -109 -263 -216 -123 -262 5 -552 274 -620
67 -17 226 -6 300 20 32 11 78 33 102 48 l44 28 0 178 0 177 -172 -2 -172 -3
0 -57 -1 -58 103 0 103 0 -3 -82 -3 -83 -40 -20 c-27 -13 -68 -20 -126 -23
-107 -5 -170 18 -229 85 -49 56 -70 118 -70 208 0 90 21 152 71 208 93 106
256 123 395 42 l42 -24 41 52 40 52 -22 18 c-96 77 -278 108 -414 72z"/>
<path d="M3110 3250 l0 -420 70 0 70 0 0 420 0 420 -70 0 -70 0 0 -420z"/>
<path d="M3830 3523 l0 -146 -23 21 c-80 75 -271 67 -367 -16 -66 -56 -93
-120 -98 -234 -4 -86 -2 -102 20 -150 33 -72 66 -108 130 -143 48 -27 62 -30
143 -30 94 0 133 12 183 58 l22 20 0 -36 0 -37 65 0 65 0 0 420 0 420 -70 0
-70 0 0 -147z m-76 -224 c53 -36 80 -92 80 -164 0 -147 -123 -233 -250 -176
-64 29 -97 80 -102 156 -2 35 1 78 7 97 13 41 64 91 106 107 46 16 119 7 159
-20z"/>
<path d="M6400 3250 l0 -420 69 0 69 0 4 203 c3 191 4 204 26 239 30 49 83 67
142 49 70 -21 75 -36 78 -278 l3 -213 70 0 70 0 -3 238 c-3 217 -5 240 -24
277 -58 111 -235 142 -334 58 l-30 -25 0 146 0 146 -70 0 -70 0 0 -420z"/>
<path d="M5670 3570 l0 -70 70 0 70 0 0 70 0 70 -70 0 -70 0 0 -70z"/>
<path d="M5987 3633 c-4 -3 -7 -48 -7 -100 l0 -93 -45 0 -45 0 0 -55 0 -55 44
0 44 0 4 -197 c3 -187 4 -200 26 -236 35 -56 72 -72 167 -72 52 1 93 6 117 17
l37 17 -22 51 c-16 38 -25 49 -37 44 -8 -4 -34 -9 -57 -12 -35 -3 -46 0 -67
22 -26 25 -26 26 -26 196 l0 170 90 0 90 0 0 55 0 55 -90 0 -90 0 0 100 0 100
-63 0 c-35 0 -67 -3 -70 -7z"/>
<path d="M2595 3437 c-132 -44 -213 -145 -223 -278 -9 -133 56 -247 176 -306
49 -24 69 -28 143 -28 79 0 92 3 155 35 231 118 230 443 -3 556 -66 33 -183
42 -248 21z m163 -122 c168 -71 159 -317 -13 -365 -55 -15 -117 -4 -166 30
-39 29 -69 96 -69 159 0 138 125 227 248 176z"/>
<path d="M4195 3431 c-52 -23 -102 -81 -111 -126 -19 -101 29 -162 166 -213
126 -47 135 -54 135 -99 0 -30 -5 -40 -25 -51 -35 -18 -122 -7 -189 23 -60 28
-66 26 -96 -30 l-19 -37 23 -17 c50 -38 122 -56 221 -56 83 0 101 3 139 25 53
30 79 63 91 116 23 102 -33 172 -180 225 -49 17 -98 40 -109 51 -33 30 -27 64
16 87 39 20 97 11 204 -33 11 -5 21 6 39 44 28 60 28 60 -69 90 -81 25 -182
26 -236 1z"/>
<path d="M4845 3433 c-16 -8 -42 -27 -57 -41 l-28 -26 0 37 0 37 -65 0 -65 0
0 -305 0 -305 69 0 70 0 3 203 c3 182 5 205 23 237 29 48 86 69 145 51 34 -10
45 -20 61 -54 16 -37 19 -67 19 -239 l0 -198 69 0 70 0 3 203 c3 182 5 205 23
237 29 48 86 69 144 51 72 -21 76 -35 79 -278 l3 -213 70 0 70 0 -3 238 c-3
224 -4 239 -26 279 -33 64 -87 95 -172 101 -82 6 -142 -13 -196 -60 l-34 -30
-21 26 c-49 62 -181 88 -254 49z"/>
<path d="M7130 3423 c-68 -36 -100 -85 -100 -158 0 -91 32 -122 197 -185 41
-16 84 -37 94 -46 37 -34 17 -87 -39 -101 -34 -8 -122 10 -179 38 -24 12 -45
20 -47 18 -2 -2 -15 -24 -30 -47 -26 -42 -27 -44 -9 -58 50 -38 127 -58 228
-58 92 -1 104 1 148 27 111 65 119 223 15 287 -18 11 -69 34 -113 51 -108 41
-125 53 -125 88 0 37 20 52 73 58 38 5 69 -3 158 -41 13 -6 23 4 43 40 14 25
26 48 26 51 0 2 -26 16 -57 31 -44 20 -78 27 -143 30 -78 4 -89 2 -140 -25z"/>
<path d="M5670 3135 l0 -305 70 0 70 0 0 305 0 305 -70 0 -70 0 0 -305z"/>
<path d="M4480 2529 c-30 -12 -40 -26 -40 -60 0 -32 13 -44 66 -61 59 -20 52
-44 -13 -41 -37 2 -53 -2 -57 -12 -13 -36 107 -50 137 -17 18 19 22 59 9 79
-4 6 -29 21 -56 33 -43 18 -48 23 -35 35 11 11 22 13 47 6 27 -8 34 -7 42 9 9
17 5 20 -27 29 -44 13 -41 13 -73 0z"/>
<path d="M5432 2529 c-39 -12 -72 -60 -72 -107 0 -50 55 -102 107 -102 84 0
139 73 108 146 -23 55 -82 81 -143 63z m82 -55 c24 -24 20 -80 -6 -98 -30 -21
-50 -20 -76 4 -26 24 -28 57 -6 88 18 26 65 30 88 6z"/>
<path d="M6234 2526 c-60 -26 -81 -93 -50 -155 36 -69 162 -67 194 4 29 63 6
126 -54 151 -41 17 -50 17 -90 0z m88 -53 c37 -34 8 -113 -42 -113 -28 0 -60
35 -60 67 0 55 61 83 102 46z"/>
<path d="M7023 2525 c-40 -17 -65 -55 -65 -99 0 -65 45 -106 118 -106 49 0
104 53 104 102 0 50 -32 95 -77 107 -46 13 -41 13 -80 -4z m96 -67 c33 -59
-28 -121 -83 -84 -31 20 -36 75 -10 101 25 25 75 16 93 -17z"/>
<path d="M3110 2450 c0 -73 3 -83 25 -105 18 -19 35 -25 65 -25 30 0 47 6 65
25 22 22 25 32 25 105 0 78 -1 80 -25 80 -23 0 -24 -3 -27 -76 -2 -60 -7 -79
-20 -88 -13 -8 -23 -8 -35 0 -14 9 -19 28 -21 88 -3 73 -4 76 -27 76 -24 0
-25 -2 -25 -80z"/>
<path d="M3360 2425 c0 -105 0 -105 25 -105 23 0 24 4 27 61 l3 62 48 -62 c30
-37 56 -61 68 -61 18 0 19 8 19 105 l0 105 -25 0 c-24 0 -25 -3 -25 -62 l0
-62 -46 62 c-34 46 -52 62 -70 62 -24 0 -24 -1 -24 -105z"/>
<path d="M3620 2425 l0 -105 25 0 25 0 0 105 0 105 -25 0 -25 0 0 -105z"/>
<path d="M3763 2425 c38 -95 44 -105 65 -103 19 3 30 20 63 103 21 55 39 101
39 103 0 1 -11 2 -24 2 -21 0 -28 -9 -45 -55 -12 -31 -21 -60 -21 -65 0 -6 -4
-10 -9 -10 -5 0 -19 29 -31 65 -20 60 -24 65 -50 65 l-28 0 41 -105z"/>
<path d="M3982 2428 l3 -103 78 -3 c71 -3 77 -1 77 17 0 17 -8 20 -52 23 -45
3 -53 6 -53 23 0 16 8 21 43 23 34 3 42 7 42 23 0 16 -7 19 -45 19 -38 0 -45
3 -45 19 0 17 8 20 52 23 41 2 54 7 56 21 3 15 -6 17 -78 17 l-81 0 3 -102z"/>
<path d="M4210 2425 l0 -105 25 0 c23 0 25 4 25 40 0 22 5 40 10 40 6 0 23
-18 38 -40 20 -30 34 -39 55 -40 30 0 30 2 -5 53 -19 27 -19 27 1 53 26 33 26
45 0 78 -18 23 -27 26 -85 26 l-64 0 0 -105z m117 49 c7 -19 -21 -44 -49 -44
-13 0 -18 8 -18 30 0 27 3 30 30 30 19 0 33 -6 37 -16z"/>
<path d="M4660 2425 l0 -105 25 0 25 0 0 105 0 105 -25 0 -25 0 0 -105z"/>
<path d="M4760 2510 c0 -16 7 -20 35 -20 l35 0 0 -86 c0 -83 1 -85 23 -82 20
3 22 9 25 86 l3 82 29 0 c23 0 30 5 30 20 0 19 -7 20 -90 20 -83 0 -90 -1 -90
-20z"/>
<path d="M4986 2518 c4 -7 23 -36 41 -65 23 -37 33 -64 33 -93 0 -36 2 -40 25
-40 23 0 25 4 25 45 0 35 8 59 35 101 19 30 35 57 35 59 0 3 -11 5 -24 5 -17
0 -31 -11 -46 -35 -24 -39 -33 -38 -55 6 -12 22 -22 29 -46 29 -21 0 -28 -4
-23 -12z"/>
<path d="M5640 2425 c0 -105 0 -105 24 -105 22 0 25 5 28 43 3 42 3 42 46 45
28 2 42 8 42 17 0 9 -14 15 -42 17 -36 2 -44 7 -46 26 -3 20 0 22 47 22 44 0
51 3 51 20 0 18 -7 20 -75 20 l-75 0 0 -105z"/>
<path d="M5980 2425 l0 -105 75 0 c68 0 75 2 75 20 0 17 -7 20 -50 20 l-50 0
0 85 c0 84 0 85 -25 85 l-25 0 0 -105z"/>
<path d="M6450 2425 c0 -105 0 -105 25 -105 23 0 24 4 27 62 l3 63 45 -63 c32
-45 51 -61 65 -59 18 2 20 11 23 105 l3 102 -26 0 c-24 0 -25 -2 -25 -62 l0
-62 -47 62 c-34 44 -55 62 -70 62 -22 0 -23 -3 -23 -105z"/>
<path d="M6710 2425 l0 -105 59 0 c107 0 166 70 127 152 -21 44 -51 58 -126
58 l-60 0 0 -105z m123 53 c46 -36 16 -118 -44 -118 l-29 0 0 65 c0 65 0 65
28 65 16 0 36 -6 45 -12z"/>
<path d="M7240 2424 c0 -104 0 -105 23 -102 19 3 23 10 27 62 l5 58 44 -61
c27 -36 52 -61 63 -61 16 0 18 10 18 105 0 97 -1 105 -20 105 -16 0 -19 -8
-22 -60 l-3 -61 -45 60 c-31 42 -52 61 -67 61 -22 0 -23 -3 -23 -106z"/>
</g>
</svg>
