<?xml version="1.0" standalone="no"?>
<!DOCTYPE svg PUBLIC "-//W3C//DTD SVG 20010904//EN"
 "http://www.w3.org/TR/2001/REC-SVG-20010904/DTD/svg10.dtd">
<svg version="1.0" xmlns="http://www.w3.org/2000/svg"
 width="990.000000pt" height="994.000000pt" viewBox="0 0 990.000000 994.000000"
 preserveAspectRatio="xMidYMid meet">

<g transform="translate(0.000000,994.000000) scale(0.100000,-0.100000)"
fill="#000000" stroke="none">
<path d="M3850 6881 c-8 -6 -32 -8 -52 -4 l-38 6 0 -320 c0 -176 -3 -596 -7
-934 -6 -568 -5 -616 11 -631 15 -16 16 -74 16 -729 -1 -419 3 -716 8 -721 12
-12 842 -12 854 0 6 6 9 393 8 990 -1 978 1 1032 32 1032 5 0 77 -67 161 -150
350 -344 430 -420 441 -420 11 0 292 282 446 448 41 45 80 81 86 82 6 0 18 -8
26 -17 13 -16 16 -136 17 -992 1 -536 4 -978 7 -982 3 -5 488 -9 1079 -9 969
0 1073 2 1079 16 3 9 6 197 6 418 0 299 -3 405 -12 414 -9 9 -169 12 -658 12
-489 0 -649 3 -658 12 -9 9 -12 298 -12 1238 0 940 -3 1229 -12 1238 -9 9
-115 12 -414 12 l-401 0 -79 -92 c-44 -51 -89 -104 -101 -118 -41 -46 -48 -54
-76 -90 -16 -19 -56 -65 -90 -102 -34 -36 -68 -73 -74 -82 -87 -107 -109 -133
-117 -143 -6 -7 -17 -19 -24 -28 -28 -33 -60 -9 -172 124 -25 30 -70 80 -100
112 -30 31 -71 78 -90 105 -19 26 -40 52 -46 58 -5 6 -32 36 -59 66 -26 30
-74 83 -106 117 l-58 62 -375 1 c-207 0 -388 3 -404 6 -15 2 -34 0 -42 -5z"/>
</g>
</svg>
